<svg xmlns="http://www.w3.org/2000/svg" width="500" height="550" version="1"><defs><marker orient="auto" id="b" overflow="visible"><path d="M5.231 2.42l-6.556-2.411 6.556-2.411c-1.047 1.423-1.041 3.37 0 4.821z" font-size="12" fill-rule="evenodd"/></marker><marker orient="auto" id="a" overflow="visible"><path d="M-5.231-2.42l6.556 2.411-6.556 2.411c1.047-1.423 1.041-3.37 0-4.821z" font-size="12" fill-rule="evenodd"/></marker><marker orient="auto" overflow="visible"><path d="M0 0l5-5-17.5 5 17.5 5-5-5z" transform="matrix(-.2 0 0 -.2 -1.2 0)" fill-rule="evenodd" stroke="#000" stroke-width="1pt"/></marker><marker orient="auto" overflow="visible"><path d="M0 0l5-5-17.5 5 17.5 5-5-5z" transform="matrix(-.8 0 0 -.8 -10 0)" fill-rule="evenodd" stroke="#000" stroke-width="1pt"/></marker></defs><g font-family="Verdana" font-weight="bold"><path style="-inkscape-font-specification:Verdana Bold" d="M238 499.362a33.5 33 0 1 1-67 0 33.5 33 0 1 1 67 0z" transform="matrix(1.791 0 0 1.818 -132.88 -440.376)" fill="#eaeaea" overflow="visible" enable-background="accumulate"/><rect style="-inkscape-font-specification:Verdana Bold" width="188" height="82" x="15.5" y="227.944" fill="#eaeaea" overflow="visible" enable-background="accumulate"/><rect style="-inkscape-font-specification:Verdana Bold" width="254" height="82" x="230.5" y="227.944" fill="#eaeaea" overflow="visible" enable-background="accumulate"/><rect style="-inkscape-font-specification:Verdana Bold" width="204" height="82" x="130.5" y="22.444" fill="#eaeaea" overflow="visible" enable-background="accumulate"/><text style="-inkscape-font-specification:Verdana Bold" x="176.273" y="73.441" font-size="26" fill="#333"><tspan x="176.273" y="73.441">MODEL</tspan></text><text style="-inkscape-font-specification:Verdana Bold" x="69.173" y="279.201" font-size="26" fill="#333"><tspan x="69.173" y="279.201">VIEW</tspan></text><text style="-inkscape-font-specification:Verdana Bold" x="259.499" y="278.941" font-size="26" fill="#333"><tspan x="259.499" y="278.941">CONTROLLER</tspan></text><text style="-inkscape-font-specification:Verdana Bold" x="-81.662" y="503.718" transform="rotate(-47.394)" font-size="20" fill="#333"><tspan x="-81.662" y="503.718">USES</tspan></text><text style="-inkscape-font-specification:Verdana Bold" x="289.5" y="166.824" font-size="20" fill="#333"><tspan x="289.5" y="166.824">MANIPULATES</tspan></text><path style="-inkscape-font-specification:Verdana Bold" d="M288.801 419.011l17.077-18.341" stroke="#000" stroke-width="2" fill="none"/><path style="-inkscape-font-specification:Verdana Bold" d="M352.163 348.604l23.444-26.032" stroke="#000" stroke-width="2" marker-end="url(#a)" fill="none"/><path style="-inkscape-font-specification:Verdana Bold" d="M99.715 321.328l13.654 17.882" stroke="#000" stroke-width="2" fill="none"/><path style="-inkscape-font-specification:Verdana Bold" d="M153.333 393.306l22.901 29.633" stroke="#000" stroke-width="2" marker-end="url(#a)" fill="none"/><text style="-inkscape-font-specification:Verdana Bold" x="350.356" y="102.613" transform="rotate(55.684)" font-size="20" fill="#333"><tspan x="350.356" y="102.613">SEES</tspan></text><path style="-inkscape-font-specification:Verdana Bold" d="M117.5 65.444c-9.797 1.189-23.657 6.766-26 34v42" stroke="#000" stroke-width="2" fill="none"/><path style="-inkscape-font-specification:Verdana Bold" d="M344.5 67.444c25.797-.811 43.657 6.766 46 34v42" stroke="#000" stroke-width="2" marker-start="url(#b)" fill="none"/><text style="-inkscape-font-specification:Verdana Bold" x="39.168" y="166.824" font-size="20" fill="#333"><tspan x="39.168" y="166.824">UPDATES</tspan></text><text style="-inkscape-font-specification:Verdana Bold" x="194.14" y="475.701" font-size="26" fill="#333"><tspan x="194.14" y="475.701">USER</tspan></text><path style="-inkscape-font-specification:Verdana Bold" d="M93.5 175.444v44" stroke="#000" stroke-width="2" marker-end="url(#a)" fill="none"/><path style="-inkscape-font-specification:Verdana Bold" d="M388.5 218.373v-42.857" stroke="#000" stroke-width="2.07" fill="none"/></g></svg>